<?xml version="1.0" encoding="UTF-8"?>
<svg version="1.1" viewBox="0 0 94.645903 110.36959" xmlns="http://www.w3.org/2000/svg">
 <path d="m71.867 0.0013924c-2.5157 0.0335-4.8696 0.67525-6.9688 1.8438-5.5867 3.1073-9.1638 9.4481-10.781 16.937-1.4938 6.9705-2.3343 13.955-10.094 20.344l-2.25 1.9062 2.4062 1.6875c7.6899 5.4297 12.033 8.7136 16.562 12.469l2.3125 1.9062 1.1562-2.75c3.9896-9.2656 10.486-11.96 16.781-15.344 6.7473-3.6207 11.848-8.8401 13.281-15.062 1.4453-6.241-1.2758-13.126-8.8438-18.812-4.723-3.5597-9.3696-5.1808-13.562-5.125zm-65.438 25.406c-0.35832-3e-3 -0.7057 0.0279-1.0625 0.0625-1.426 0.12851-3.0677 0.69131-4.125 2.0938-1.5749 2.0949-1.0701 4.5597-0.25 6.5938 0.82127 2.0242 2.1829 4.1329 4 6.5 3.6354 4.7242 9.1606 10.391 16.063 16.5l0.9375 0.8125 1.25-0.0312c7.1656-0.35616 14.51 2.0404 19.969 6.8438v0.0312l0.0625 0.0625c4.5632 3.7241 7.4362 8.8964 8.6562 14.594l0.28125 1.25 1.0625 0.6875c7.7985 4.9513 14.777 8.6899 20.344 10.875 2.7781 1.094 5.1964 1.8364 7.375 2.0625 2.1791 0.22213 4.6956 7e-3 6.2812-2.0938 1.0578-1.4064 1.1374-3.1292 0.875-4.5312-0.27196-1.4062-0.87005-2.7539-1.6562-4.1562-1.5724-2.8047-4.0577-5.9514-7.3125-9.5-6.5096-7.0972-16.104-15.643-27.438-24.156-11.323-8.5216-22.196-15.383-30.812-19.656-4.3132-2.1372-8.032-3.6418-11.156-4.375-1.1832-0.27257-2.2688-0.45869-3.3438-0.46875zm12.719 14.906c1.3061 0.0591 3.027 0.78955 4.5938 2.0625 2.5067 2.0367 3.7059 4.7154 2.6875 5.9688s-3.8683 0.59923-6.375-1.4375-3.7059-4.6841-2.6875-5.9375c0.38189-0.47001 0.99756-0.69169 1.7812-0.65625zm6.1562 19.312c-3.2963 2e-3 -6.6585 0.63214-9.875 2-12.856 5.4736-18.882 20.459-13.406 33.312 1.8794 4.4197 4.8804 8.0436 8.5313 10.656 6.9773 4.9943 16.314 6.3383 24.75 2.75 12.856-5.4746 18.882-20.423 13.406-33.281-4.107-9.6401-13.517-15.443-23.406-15.438zm0.0312 7.2188c7.0645-0.0246 13.764 4.118 16.719 11.062 3.9398 9.2553-0.30844 19.843-9.5625 23.781-6.0771 2.5841-12.755 1.638-17.719-1.9375-2.6122-1.8766-4.7483-4.4772-6.0938-7.6562-3.9398-9.2553 0.3294-19.842 9.5938-23.781 2.3135-0.98423 4.7077-1.4606 7.0625-1.4688zm36.969 6.5312c1.3061 0.0591 2.9958 0.78955 4.5625 2.0625 2.5067 2.0367 3.7371 4.6841 2.7188 5.9375s-3.8995 0.63048-6.4062-1.4062-3.7059-4.7154-2.6875-5.9688c0.38189-0.47001 1.0288-0.66044 1.8125-0.625z"/>
</svg>
